<svg width="40" height="40" viewBox="0 0 40 40" fill="none" xmlns="http://www.w3.org/2000/svg"><path d="M37.74 26.3H2.26A2.23 2.23 0 0 0 0 28.48v1.77c0 1.17 1 2.13 2.26 2.13h.52v.5a5.12 5.12 0 0 0 5.2 5.02h24.04c2.89 0 5.2-2.28 5.2-5.01v-.51h.52c1.21 0 2.26-.96 2.26-2.18v-1.77c0-1.12-1-2.13-2.26-2.13Zm-2.04 6.59c0 1.92-1.63 3.49-3.63 3.49H7.93c-2 0-3.63-1.57-3.63-3.5v-.5h31.4v.5Zm2.73-2.69c0 .36-.32.66-.69.66H2.26a.68.68 0 0 1-.69-.66v-1.77c0-.3.32-.61.69-.61H37.8c.36 0 .68.3.68.66v1.72h-.05ZM8.5 22.2l2.84 2.02 2.89-2.02 2.88 2.02L20 22.2l2.83 2.02 2.9-2.02 2.88 2.02 2.89-2.02 2.88 2.02 3.31-2.38-.9-1.21-2.4 1.67-2.9-2.03-2.88 2.03-2.89-2.03-2.89 2.03L20 20.27l-2.89 2.03-2.88-2.03-2.9 2.03-2.83-2.03-2.88 2.03-2.42-1.67-.94 1.21 3.36 2.38L8.5 22.2ZM37.22 18.75c0-.3.05-1.31 0-1.52C36.85 9.33 29.29 3 20 3 10.7 3 3.1 9.33 2.73 17.23v1.52h34.49ZM20 4.52c8.4 0 15.33 5.67 15.64 12.71H4.3C4.67 10.2 11.6 4.52 20 4.52Z" fill="#81B3D2"/><path d="M20 11.61c.58 0 1.05-.45 1.05-1.01S20.58 9.58 20 9.58c-.58 0-1.05.46-1.05 1.02s.47 1.01 1.05 1.01ZM15.8 9.13c.58 0 1.05-.45 1.05-1.01S16.38 7.1 15.8 7.1c-.58 0-1.05.46-1.05 1.02s.47 1 1.05 1ZM24.2 9.13c.58 0 1.05-.45 1.05-1.01S24.78 7.1 24.2 7.1c-.58 0-1.05.46-1.05 1.02s.47 1 1.05 1Z" fill="#81B3D2"/></svg>