<svg width="40" height="40" viewBox="0 0 40 40" fill="none" xmlns="http://www.w3.org/2000/svg"><path d="M15.4 35.22h8.35V23.06H15.4v12.16Zm6.84-1.48h-5.32v-9.2h5.27v9.2h.05Z" fill="#81B3D2"/><path d="m37.9 22.04 1.1-1.07-5.17-5.03V2.2h-7.2v6.72L19.47 2 0 21.03l1.1 1.06 4.07-3.96v19.23H3.13v1.47H36.5v-1.47h-2.66V18.08l4.07 3.96ZM28.14 3.73h4.13v10.73l-4.13-4.02V3.73Zm4.18 33.57H6.73V16.6L19.47 4.14l12.8 12.46v20.7h.05Z" fill="#81B3D2"/><path d="M15.56 15.84a4.01 4.01 0 0 0 4.02 3.96 4.03 4.03 0 0 0 4.07-3.96 3.98 3.98 0 0 0-4.07-3.92 3.94 3.94 0 0 0-4.02 3.92Zm4.02-2.55a2.59 2.59 0 0 1 2.6 2.55 2.58 2.58 0 0 1-2.6 2.54 2.59 2.59 0 0 1-2.61-2.54c0-1.38 1.2-2.55 2.6-2.55ZM10.39 23.06H8.82v1.99h1.57v-1.99ZM13.47 23.06H11.9v1.99h1.57v-1.99ZM10.39 26.11H8.82v1.99h1.57V26.1ZM13.47 26.11H11.9v1.99h1.57V26.1ZM27.04 23.06h-1.56v1.99h1.56v-1.99ZM30.18 23.06H28.6v1.99h1.57v-1.99ZM27.04 26.11h-1.56v1.99h1.56V26.1ZM30.18 26.11H28.6v1.99h1.57V26.1Z" fill="#81B3D2"/></svg>